<svg width="280" height="4562" viewBox="0 0 280 4562" fill="none" xmlns="http://www.w3.org/2000/svg">
<path d="M0 3522.5L160.5 3425.07V3619.93L0 3522.5Z" fill="black"/>
<path d="M0 3695.5L160.5 3598.07V3792.93L0 3695.5Z" fill="black"/>
<path d="M0 3868.5L160.5 3771.07V3965.93L0 3868.5Z" fill="black"/>
<path d="M0 4025.5L160.5 3928.07V4122.93L0 4025.5Z" fill="black"/>
<path d="M0 4182.5L160.5 4085.07V4279.93L0 4182.5Z" fill="black"/>
<path d="M0 4337.5L160.5 4240.07V4434.93L0 4337.5Z" fill="black"/>
<path d="M0 4182.5L160.5 4085.07V4279.93L0 4182.5Z" fill="black"/>
<rect x="160" width="120" height="1024" fill="white"/>
<path d="M0 4449.5L160.5 4352.07V4546.93L0 4449.5Z" fill="black"/>
<path d="M0 4424.5L160.5 4327.07V4521.93L0 4424.5Z" fill="white"/>
<path d="M0 4312.5L160.5 4215.07V4409.93L0 4312.5Z" fill="white"/>
<path d="M0 4157.5L160.5 4060.07V4254.93L0 4157.5Z" fill="white"/>
<path d="M0 4001.5L160.5 3904.07V4098.93L0 4001.5Z" fill="white"/>
<path d="M0 3842.5L160.5 3745.07V3939.93L0 3842.5Z" fill="white"/>
<path d="M0 3671.5L160.5 3574.07V3768.93L0 3671.5Z" fill="white"/>
<path d="M0 3497.5L160.5 3400.07V3594.93L0 3497.5Z" fill="white"/>
<path d="M0 3497.5L160.5 3400.07V3594.93L0 3497.5Z" fill="white"/>
</svg>
