<svg width="52" height="39" viewBox="0 0 52 39" fill="none" xmlns="http://www.w3.org/2000/svg">
<path d="M20.8728 10.7946C22.5236 6.96284 27.9566 6.96284 29.6075 10.7946L29.8108 11.2666C30.4388 12.7242 31.8738 13.6684 33.4608 13.6684H35.4127C39.0089 13.6684 40.2362 18.4623 37.0823 20.1903C35.5107 21.0515 34.8517 22.9666 35.5608 24.6125L35.6463 24.8109C37.0437 28.0541 33.5503 31.2322 30.4533 29.5353L27.5678 27.9543C26.1177 27.1597 24.3625 27.1597 22.9124 27.9543L20.0269 29.5353C16.9299 31.2322 13.4366 28.0541 14.8339 24.8109L14.9194 24.6125C15.6285 22.9666 14.9696 21.0515 13.3979 20.1903C10.244 18.4623 11.4713 13.6684 15.0676 13.6684H17.0194C18.6065 13.6684 20.0414 12.7242 20.6694 11.2666L20.8728 10.7946Z" fill="#00001A"/>
<path d="M31.9801 19.9858C33.0496 17.4548 36.6365 17.4548 37.706 19.9858L37.8285 20.2756C38.2405 21.2506 39.1961 21.8842 40.2545 21.8842H41.4567C43.8484 21.8842 44.6764 25.0643 42.5885 26.2308C41.5554 26.8079 41.1221 28.0699 41.5827 29.16L41.6357 29.2854C42.5518 31.4535 40.2069 33.5544 38.1521 32.4065L36.3875 31.4206C35.4277 30.8844 34.2584 30.8844 33.2986 31.4206L31.534 32.4065C29.4792 33.5544 27.1343 31.4535 28.0504 29.2854L28.1034 29.16C28.564 28.0699 28.1307 26.8079 27.0976 26.2308C25.0097 25.0643 25.8377 21.8842 28.2294 21.8842H29.4316C30.49 21.8842 31.4456 21.2506 31.8576 20.2756L31.9801 19.9858Z" fill="#5375A0"/>
</svg>
