<svg width="55" height="46" viewBox="0 0 55 46" fill="none" xmlns="http://www.w3.org/2000/svg">
<path d="M25.0055 1.99368C26.0094 -0.525605 29.5754 -0.525607 30.5793 1.99368L35.2999 13.84C35.7545 14.9809 36.8586 15.7295 38.0868 15.7295H51.834C54.8856 15.7295 55.9885 19.7552 53.3631 21.3106L43.3657 27.2331C42.0947 27.9861 41.561 29.5524 42.1079 30.9248L46.1591 41.0912C47.2189 43.7507 44.3063 46.242 41.8431 44.7828L29.3214 37.3648C28.3786 36.8063 27.2062 36.8063 26.2633 37.3648L13.7416 44.7828C11.2785 46.242 8.36591 43.7507 9.4257 41.0912L13.4769 30.9248C14.0238 29.5524 13.4901 27.9861 12.2191 27.2331L2.22167 21.3106C-0.403728 19.7552 0.699226 15.7295 3.75074 15.7295H17.498C18.7262 15.7295 19.8303 14.9809 20.2849 13.84L25.0055 1.99368Z" fill="#1D50C3"/>
</svg>
