<svg width="32" height="28" viewBox="0 0 32 28" fill="none" xmlns="http://www.w3.org/2000/svg">
<path d="M13.1493 2.14947C14.1435 -0.394487 17.7434 -0.394491 18.7376 2.14947L20.5988 6.91166C21.0485 8.06231 22.1576 8.81963 23.393 8.81963H28.0536C31.0916 8.81963 32.2051 12.8168 29.6047 14.3875L26.8454 16.0542C25.5956 16.8091 25.0708 18.3542 25.6023 19.7141L26.8684 22.9537C27.9116 25.6229 24.9762 28.0953 22.5231 26.6136L17.4945 23.5762C16.5407 23.0001 15.3462 23.0001 14.3924 23.5762L9.36381 26.6136C6.91075 28.0953 3.97534 25.6229 5.01853 22.9537L6.28461 19.7141C6.8161 18.3542 6.29131 16.8091 5.04151 16.0542L2.28226 14.3875C-0.318172 12.8168 0.79534 8.81963 3.83334 8.81963H8.49392C9.72932 8.81963 10.8384 8.06231 11.2881 6.91166L13.1493 2.14947Z" fill="white"/>
</svg>
