<svg width="280" height="4002" viewBox="0 0 280 4002" fill="none" xmlns="http://www.w3.org/2000/svg">
<path d="M0 2962.5L160.5 2865.07V3059.93L0 2962.5Z" fill="black"/>
<path d="M0 3135.5L160.5 3038.07V3232.93L0 3135.5Z" fill="black"/>
<path d="M0 3308.5L160.5 3211.07V3405.93L0 3308.5Z" fill="black"/>
<path d="M0 3465.5L160.5 3368.07V3562.93L0 3465.5Z" fill="black"/>
<path d="M0 3622.5L160.5 3525.07V3719.93L0 3622.5Z" fill="black"/>
<path d="M0 3777.5L160.5 3680.07V3874.93L0 3777.5Z" fill="black"/>
<path d="M0 3622.5L160.5 3525.07V3719.93L0 3622.5Z" fill="black"/>
<rect x="160" width="120" height="1024" fill="white"/>
<path d="M0 3889.5L160.5 3792.07V3986.93L0 3889.5Z" fill="black"/>
<path d="M0 3864.5L160.5 3767.07V3961.93L0 3864.5Z" fill="white"/>
<path d="M0 3752.5L160.5 3655.07V3849.93L0 3752.5Z" fill="white"/>
<path d="M0 3597.5L160.5 3500.07V3694.93L0 3597.5Z" fill="white"/>
<path d="M0 3441.5L160.5 3344.07V3538.93L0 3441.5Z" fill="white"/>
<path d="M0 3282.5L160.5 3185.07V3379.93L0 3282.5Z" fill="white"/>
<path d="M0 3111.5L160.5 3014.07V3208.93L0 3111.5Z" fill="white"/>
<path d="M0 2937.5L160.5 2840.07V3034.93L0 2937.5Z" fill="white"/>
<path d="M0 2937.5L160.5 2840.07V3034.93L0 2937.5Z" fill="white"/>
</svg>
