<svg width="1464" height="968" viewBox="0 0 1464 968" fill="none" xmlns="http://www.w3.org/2000/svg">
<path d="M680.867 0H1464V885.511H719.622L7 910L680.867 0Z" fill="white"/>
<path d="M739.689 14H1440V968H779.771H0L739.689 14Z" fill="#6F9CD6"/>
<rect x="904" y="538.488" width="35.7894" height="60.0933" rx="5" fill="black"/>
<rect x="939.789" y="538.488" width="35.7894" height="60.0933" rx="5" fill="black"/>
<rect x="1185.54" y="538.488" width="35.7894" height="60.0933" rx="5" fill="black"/>
<rect x="1221.33" y="538.488" width="35.7894" height="60.0933" rx="5" fill="black"/>
<rect x="1116.35" y="538.488" width="35.7894" height="60.0933" rx="5" fill="black"/>
<rect x="1152.14" y="538.488" width="35.7894" height="60.0933" rx="5" fill="black"/>
<rect x="1044.77" y="538.488" width="35.7894" height="60.0933" rx="5" fill="black"/>
<rect x="1080.56" y="538.488" width="35.7894" height="60.0933" rx="5" fill="black"/>
<rect x="973.193" y="538.488" width="35.7894" height="60.0933" rx="5" fill="black"/>
<rect x="1008.98" y="538.488" width="35.7894" height="60.0933" rx="5" fill="black"/>
<rect x="911.158" y="529" width="35.7894" height="60.0933" rx="5" fill="white"/>
<rect x="946.947" y="529" width="35.7894" height="60.0933" rx="5" fill="white"/>
<rect x="1192.7" y="529" width="35.7894" height="60.0933" rx="5" fill="white"/>
<rect x="1228.49" y="529" width="35.7894" height="60.0933" rx="5" fill="white"/>
<rect x="1123.51" y="529" width="35.7894" height="60.0933" rx="5" fill="white"/>
<rect x="1159.3" y="529" width="35.7894" height="60.0933" rx="5" fill="white"/>
<rect x="1051.93" y="529" width="35.7894" height="60.0933" rx="5" fill="white"/>
<rect x="1087.72" y="529" width="35.7894" height="60.0933" rx="5" fill="white"/>
<rect x="980.351" y="529" width="35.7894" height="60.0933" rx="5" fill="white"/>
<rect x="1016.14" y="529" width="35.7894" height="60.0933" rx="5" fill="white"/>
<rect x="913.544" y="535.326" width="31.0175" height="47.4421" rx="5" fill="#5375A0"/>
<rect x="949.333" y="535.326" width="31.0175" height="47.4421" rx="5" fill="#5375A0"/>
<rect x="1018.53" y="535.326" width="31.0175" height="47.4421" rx="5" fill="#5375A0"/>
<rect x="982.737" y="535.326" width="31.0175" height="47.4421" rx="5" fill="#5375A0"/>
<rect x="420" y="665.488" width="35.7894" height="60.0933" rx="5" fill="black"/>
<rect x="455.789" y="665.488" width="35.7894" height="60.0933" rx="5" fill="black"/>
<rect x="701.543" y="665.488" width="35.7894" height="60.0933" rx="5" fill="black"/>
<rect x="737.332" y="665.488" width="35.7894" height="60.0933" rx="5" fill="black"/>
<rect x="632.35" y="665.488" width="35.7894" height="60.0933" rx="5" fill="black"/>
<rect x="668.14" y="665.488" width="35.7894" height="60.0933" rx="5" fill="black"/>
<rect x="560.772" y="665.488" width="35.7894" height="60.0933" rx="5" fill="black"/>
<rect x="596.561" y="665.488" width="35.7894" height="60.0933" rx="5" fill="black"/>
<rect x="489.193" y="665.488" width="35.7894" height="60.0933" rx="5" fill="black"/>
<rect x="524.982" y="665.488" width="35.7894" height="60.0933" rx="5" fill="black"/>
<rect x="427.158" y="656" width="35.7894" height="60.0933" rx="5" fill="white"/>
<rect x="462.947" y="656" width="35.7894" height="60.0933" rx="5" fill="white"/>
<rect x="708.701" y="656" width="35.7894" height="60.0933" rx="5" fill="white"/>
<rect x="744.49" y="656" width="35.7894" height="60.0933" rx="5" fill="white"/>
<rect x="639.508" y="656" width="35.7894" height="60.0933" rx="5" fill="white"/>
<rect x="675.298" y="656" width="35.7894" height="60.0933" rx="5" fill="white"/>
<rect x="567.929" y="656" width="35.7894" height="60.0933" rx="5" fill="white"/>
<rect x="603.719" y="656" width="35.7894" height="60.0933" rx="5" fill="white"/>
<rect x="496.351" y="656" width="35.7894" height="60.0933" rx="5" fill="white"/>
<rect x="532.14" y="656" width="35.7894" height="60.0933" rx="5" fill="white"/>
<rect x="429.544" y="662.326" width="31.0175" height="47.4421" rx="5" fill="#5375A0"/>
<rect x="465.333" y="662.326" width="31.0175" height="47.4421" rx="5" fill="#5375A0"/>
<rect x="534.526" y="662.326" width="31.0175" height="47.4421" rx="5" fill="#5375A0"/>
<rect x="498.737" y="662.326" width="31.0175" height="47.4421" rx="5" fill="#5375A0"/>
<rect x="906.959" y="665.911" width="35.7894" height="60.0933" rx="5" fill="black"/>
<rect x="942.748" y="665.911" width="35.7894" height="60.0933" rx="5" fill="black"/>
<rect x="1188.5" y="665.911" width="35.7894" height="60.0933" rx="5" fill="black"/>
<rect x="1224.29" y="665.911" width="35.7894" height="60.0933" rx="5" fill="black"/>
<rect x="1119.31" y="665.911" width="35.7894" height="60.0933" rx="5" fill="black"/>
<rect x="1155.1" y="665.911" width="35.7894" height="60.0933" rx="5" fill="black"/>
<rect x="1047.73" y="665.911" width="35.7894" height="60.0933" rx="5" fill="black"/>
<rect x="1083.52" y="665.911" width="35.7894" height="60.0933" rx="5" fill="black"/>
<rect x="976.152" y="665.911" width="35.7894" height="60.0933" rx="5" fill="black"/>
<rect x="1011.94" y="665.911" width="35.7894" height="60.0933" rx="5" fill="black"/>
<rect x="914.117" y="656.423" width="35.7894" height="60.0933" rx="5" fill="white"/>
<rect x="949.906" y="656.423" width="35.7894" height="60.0933" rx="5" fill="white"/>
<rect x="1195.66" y="656.423" width="35.7894" height="60.0933" rx="5" fill="white"/>
<rect x="1231.45" y="656.423" width="35.7894" height="60.0933" rx="5" fill="white"/>
<rect x="1126.47" y="656.423" width="35.7894" height="60.0933" rx="5" fill="white"/>
<rect x="1162.26" y="656.423" width="35.7894" height="60.0933" rx="5" fill="white"/>
<rect x="1054.89" y="656.423" width="35.7894" height="60.0933" rx="5" fill="white"/>
<rect x="1090.68" y="656.423" width="35.7894" height="60.0933" rx="5" fill="white"/>
<rect x="983.31" y="656.423" width="35.7894" height="60.0933" rx="5" fill="white"/>
<rect x="1019.1" y="656.423" width="35.7894" height="60.0933" rx="5" fill="white"/>
<rect x="916.503" y="662.749" width="31.0175" height="47.4421" rx="5" fill="#5375A0"/>
<rect x="952.292" y="662.749" width="31.0175" height="47.4421" rx="5" fill="#5375A0"/>
<rect x="1021.48" y="662.749" width="31.0175" height="47.4421" rx="5" fill="#5375A0"/>
<rect x="1093.06" y="662.749" width="31.0175" height="47.4421" rx="5" fill="#5375A0"/>
<rect x="1057.27" y="662.749" width="31.0175" height="47.4421" rx="5" fill="#5375A0"/>
<rect x="985.696" y="662.749" width="31.0175" height="47.4421" rx="5" fill="#5375A0"/>
<rect x="1128.88" y="662.421" width="31.0175" height="47.4421" rx="5" fill="#5375A0"/>
</svg>
