<svg width="278" height="291" viewBox="0 0 278 291" fill="none" xmlns="http://www.w3.org/2000/svg">
<path d="M139 0L170.207 100.538H271.197L189.495 162.674L220.702 263.212L139 201.076L57.2979 263.212L88.5053 162.674L6.80315 100.538H107.793L139 0Z" fill="#FE7160"/>
<path d="M139.5 41L162.737 113.208L237.934 113.208L177.099 157.835L200.336 230.042L139.5 185.415L78.6642 230.042L101.901 157.835L41.0657 113.208L116.263 113.208L139.5 41Z" fill="white"/>
<path d="M139.5 67L157.349 120.897H215.109L168.38 154.207L186.229 208.103L139.5 174.793L92.7711 208.103L110.62 154.207L63.891 120.897H121.651L139.5 67Z" fill="black"/>
</svg>
