<svg width="633" height="321" viewBox="0 0 633 321" fill="none" xmlns="http://www.w3.org/2000/svg">
<rect y="13" width="619" height="308" rx="10" fill="white"/>
<rect x="14" width="619" height="308" rx="10" fill="#FE7160"/>
<path d="M25.6536 85.1988C27.1965 81.45 32.506 81.45 34.049 85.1988L34.2075 85.5839C34.8118 87.0522 36.2426 88.0105 37.8303 88.0105H39.436C43.0118 88.0105 44.2741 92.7487 41.1723 94.5277C39.6524 95.3995 39.0145 97.2631 39.6814 98.8834L39.7527 99.0567C41.0959 102.32 37.5466 105.435 34.4853 103.679L32.152 102.341C30.7271 101.523 28.9755 101.523 27.5506 102.341L25.2172 103.679C22.156 105.435 18.6067 102.32 19.9499 99.0567L20.0212 98.8834C20.6881 97.2631 20.0502 95.3995 18.5303 94.5277C15.4284 92.7487 16.6908 88.0105 20.2666 88.0105H21.8722C23.46 88.0105 24.8908 87.0522 25.4951 85.5839L25.6536 85.1988Z" fill="#1D50C3"/>
<path d="M36.2731 94.3695C37.2725 91.8939 40.7774 91.8939 41.7767 94.3695L41.8707 94.6024C42.2669 95.5837 43.2192 96.2263 44.2774 96.2263H45.2523C47.6306 96.2263 48.4821 99.3693 46.4292 100.57C45.4305 101.154 45.0112 102.382 45.4443 103.455L45.4878 103.563C46.3681 105.743 43.9865 107.801 41.9565 106.614L40.5504 105.792C39.6081 105.241 38.4418 105.241 37.4995 105.792L36.0934 106.614C34.0634 107.801 31.6818 105.743 32.5621 103.563L32.6056 103.455C33.0387 102.382 32.6194 101.154 31.6207 100.57C29.5677 99.3693 30.4193 96.2263 32.7976 96.2263H33.7724C34.8307 96.2263 35.783 95.5837 36.1791 94.6024L36.2731 94.3695Z" fill="white"/>
</svg>
